<svg width="64" height="58" viewBox="0 0 64 58" fill="none" xmlns="http://www.w3.org/2000/svg">
<path d="M56.0272 11.2159C58.8749 11.2159 61.1835 9.12467 61.1835 6.54502C61.1835 3.96537 58.8749 1.87415 56.0272 1.87415C53.1795 1.87415 50.871 3.96537 50.871 6.54502C50.871 9.12467 53.1795 11.2159 56.0272 11.2159Z" fill="#E9A982"/>
<path d="M24.3115 41.3479C26.0174 41.3479 27.2491 39.7138 26.7784 38.0742C25.3581 33.1271 20.7997 29.5073 15.396 29.5073C9.99224 29.5073 5.43399 33.1272 4.01374 38.0742C3.54299 39.7138 4.77474 41.3479 6.48061 41.3479H24.3115Z" fill="#FF6E80"/>
<path d="M29.8545 20.7151C29.8545 27.8582 23.3813 32.3476 15.396 32.3476C7.41075 32.3476 0.9375 27.8582 0.9375 20.7151C0.9375 13.572 7.41075 7.78137 15.396 7.78137C23.3813 7.78137 29.8545 13.572 29.8545 20.7151Z" fill="#E9A982"/>
<path d="M57.5195 41.3479C59.2254 41.3479 60.457 39.7138 59.9864 38.0742C58.5661 33.1271 54.0077 29.5073 48.604 29.5073C43.2002 29.5073 38.642 33.1272 37.2216 38.0742C36.7509 39.7138 37.9826 41.3479 39.6885 41.3479H57.5195Z" fill="#928FFB"/>
<path d="M63.0625 20.7151C63.0625 27.8582 56.5893 32.3476 48.604 32.3476C40.6188 32.3476 34.1455 27.8582 34.1455 20.7151C34.1455 13.572 40.6188 7.78137 48.604 7.78137C56.5893 7.78137 63.0625 13.572 63.0625 20.7151Z" fill="#FFD3BC"/>
<path d="M10.949 13.296C14.4703 14.4163 23.5624 15.4785 28.262 13.3422C29.2037 12.9142 29.474 11.7053 28.8123 10.9102C23.613 4.66321 10.8245 1.74034 7.0604 8.60371C6.8884 8.91734 6.5684 9.11621 6.2134 9.15934C4.69665 9.34334 2.4424 10.4067 1.43115 12.5288C0.972529 13.4912 1.59815 14.6166 2.65553 14.7527C4.76765 15.0247 7.82328 14.7446 9.7614 13.4592C10.1115 13.227 10.5488 13.1686 10.949 13.296Z" fill="#716667"/>
<path d="M48.604 6.26965C54.0828 6.26965 59.1078 8.47653 61.6322 11.9205C62.4452 13.0297 61.823 14.6154 60.4694 14.8573C56.8855 15.4978 52.1308 14.8533 49.3525 12.8164C48.909 12.4913 48.299 12.4913 47.8555 12.8164C45.0773 14.8533 40.3225 15.4977 36.7387 14.8573C35.3849 14.6154 34.7629 13.0297 35.5759 11.9205C38.1003 8.47653 43.1253 6.26965 48.604 6.26965Z" fill="#E9A982"/>
<path d="M39.3561 56.1261C40.7636 56.1261 41.7798 54.7777 41.3915 53.4248C40.2196 49.343 36.4585 46.3562 31.9998 46.3562C27.5412 46.3562 23.7801 49.343 22.6082 53.4248C22.2198 54.7777 23.2361 56.1261 24.6436 56.1261H39.3561Z" fill="#A9D957"/>
<path d="M46.4585 37.9057C46.4585 45.0488 39.9853 49.5382 32 49.5382C24.0148 49.5382 17.5415 45.0488 17.5415 37.9057C17.5415 30.7625 24.0148 24.9719 32 24.9719C39.9853 24.9719 46.4585 30.7625 46.4585 37.9057Z" fill="#FFDCCE"/>
<path d="M32.502 24.845C39.8291 23.3422 45.0181 29.4538 46.2031 32.7094C46.4256 33.3208 45.9181 33.946 45.2736 33.8579C43.6697 33.6387 41.0697 33.083 39.0845 31.7604C38.7688 31.5502 38.3392 31.6693 38.1815 32.0143C37.997 32.4182 37.8333 32.8242 37.7051 33.1615C37.5242 33.6368 36.9733 33.8523 36.518 33.6259C35.3932 33.0668 33.8215 31.9907 32.6112 30.9873C32.2565 30.6933 31.7435 30.6933 31.3887 30.9873C30.1783 31.9905 28.6067 33.0668 27.482 33.6259C27.0266 33.8523 26.4756 33.6368 26.2948 33.1615C26.1665 32.8242 26.003 32.4182 25.8185 32.0143C25.6608 31.6694 25.2311 31.5502 24.9156 31.7604C22.9305 33.0829 20.3305 33.6385 18.7266 33.8579C18.082 33.946 17.5746 33.3208 17.7971 32.7094C18.9821 29.4538 24.1711 23.3422 31.4982 24.845C31.829 24.9129 32.1708 24.9129 32.502 24.845Z" fill="#E9A982"/>
<path d="M7.422 18.7341C6.90425 18.7341 6.4845 19.1539 6.4845 19.6716V21.1716C6.4845 21.6894 6.90425 22.1091 7.422 22.1091C7.93975 22.1091 8.3595 21.6894 8.3595 21.1716V19.6716C8.3595 19.1538 7.93975 18.7341 7.422 18.7341ZM23.0341 22.1091C23.5519 22.1091 23.9716 21.6894 23.9716 21.1716V19.6716C23.9716 19.1539 23.5519 18.7341 23.0341 18.7341C22.5164 18.7341 22.0966 19.1539 22.0966 19.6716V21.1716C22.0966 21.6894 22.5164 22.1091 23.0341 22.1091ZM56.791 31.5386C61.5145 29.2876 64 25.2468 64 20.7151C64 18.5999 63.4599 16.5075 62.4355 14.6199C63.1103 13.637 63.1044 12.3433 62.3882 11.3663C61.9796 10.8089 61.5126 10.2838 60.9964 9.79252C61.7266 8.85127 62.1209 7.72827 62.1209 6.54502C62.1209 3.45252 59.3872 0.936523 56.0272 0.936523C53.0829 0.936523 50.6432 2.82377 50.0661 5.38315C43.208 4.9154 37.5153 7.68877 34.8198 11.3663C34.1023 12.345 34.0993 13.639 34.7726 14.6199C33.2006 17.5165 32.8232 20.8054 33.5941 23.7325C33.177 23.7739 32.7504 23.8371 32.3138 23.9266C32.1056 23.9694 31.8946 23.9694 31.6865 23.9266C31.2496 23.837 30.8228 23.7739 30.4053 23.7324C31.2079 20.6904 30.7913 17.1618 28.9064 14.0611C30.2025 13.2838 30.528 11.5064 29.5329 10.3106C25.593 5.5769 17.7556 2.75315 12.0621 4.01577C11.5566 4.1279 11.2378 4.62852 11.3499 5.13402C11.462 5.6394 11.9623 5.9584 12.4681 5.84627C17.4604 4.7389 24.615 7.3329 28.0916 11.5101C28.3573 11.8293 28.2536 12.3164 27.874 12.4889C23.4486 14.5004 14.6884 13.5019 11.2331 12.4026C10.5566 12.1873 9.83138 12.2878 9.24325 12.6779C7.52737 13.8159 4.6875 14.0693 2.77525 13.8229C2.34837 13.7679 2.09375 13.3175 2.2775 12.9321C3.0945 11.2178 4.949 10.2571 6.32638 10.09C6.98925 10.0095 7.57087 9.62252 7.88237 9.05452C8.18475 8.50302 8.56437 8.00877 9.01062 7.58515C9.38612 7.22865 9.40162 6.63527 9.04513 6.25977C8.68875 5.88427 8.09538 5.86877 7.71975 6.22527C7.13263 6.78252 6.63425 7.43102 6.23838 8.1529C6.217 8.1919 6.16412 8.2209 6.10038 8.22865C4.1675 8.46315 1.71237 9.75902 0.58475 12.1254C0.065125 13.2156 0.405 14.4501 1.29013 15.154C0.4445 16.8979 0 18.8011 0 20.7151C0 25.2174 2.458 29.2763 7.21338 31.5406C5.255 33.1723 3.82087 35.3484 3.11262 37.8154C2.46975 40.0548 4.14875 42.2854 6.4805 42.2854H17.4495C18.6866 45.3163 21.1138 47.5213 24.1224 48.8761C22.995 50.0965 22.1696 51.5558 21.7074 53.1661C21.1469 55.1188 22.6108 57.0635 24.6439 57.0635H35.276C35.7938 57.0635 36.2135 56.6438 36.2135 56.126C36.2135 55.6083 35.7938 55.1885 35.276 55.1885H24.6437C23.8596 55.1885 23.2928 54.4383 23.5095 53.6835C23.9616 52.1085 24.8359 50.7081 26.0483 49.6035C29.753 50.7556 34.1726 50.7788 37.9516 49.6035C39.164 50.7081 40.0382 52.1085 40.4904 53.6835C40.6925 54.3873 40.216 55.0643 39.5522 55.1728C39.0412 55.2561 38.6946 55.738 38.7781 56.249C38.8619 56.7618 39.3452 57.1064 39.8544 57.0231C41.6335 56.7328 42.8018 54.9394 42.2926 53.166C41.8302 51.5556 41.0036 50.0971 39.876 48.8768C42.8744 47.5269 45.3095 45.3256 46.5505 42.2853H57.5195C59.8491 42.2853 61.5309 40.0566 60.8875 37.8153C60.1793 35.3489 58.7482 33.1705 56.791 31.5386ZM56.0272 2.81152C58.3534 2.81152 60.2459 4.48627 60.2459 6.54502C60.2459 7.28452 60.0022 7.99265 59.5494 8.59765C57.4586 7.09827 54.8257 6.0554 51.9466 5.5964C52.4171 3.98227 54.0585 2.81152 56.0272 2.81152ZM36.3319 12.4748C38.6775 9.27477 43.4945 7.20715 48.6039 7.20715C53.7132 7.20715 58.5304 9.27477 60.876 12.4748C61.2803 13.0263 60.9729 13.8149 60.3044 13.9344C56.1651 14.6739 51.9406 13.5515 49.9066 12.0603C49.1274 11.489 48.0802 11.489 47.301 12.0604C45.267 13.5516 41.042 14.6743 36.9034 13.9344C36.2359 13.8151 35.9272 13.0269 36.3319 12.4748ZM31.3097 25.7634C31.7677 25.8573 32.2323 25.8573 32.6903 25.7634C36.3968 25.003 39.3083 26.4221 41.0983 27.7464C43.2156 29.313 44.7062 31.4434 45.2776 32.9118C43.9011 32.7144 41.4483 32.2086 39.6043 30.9801C38.8085 30.4499 37.7261 30.7553 37.3288 31.6246C37.1721 31.9676 37.0144 32.3451 36.8594 32.7481C35.8392 32.2283 34.3856 31.2404 33.2095 30.2655C32.5088 29.6844 31.4913 29.6844 30.7903 30.2655C29.6144 31.2403 28.1606 32.2283 27.1404 32.7481C26.985 32.3441 26.8272 31.9665 26.671 31.6246C26.2738 30.755 25.1912 30.4499 24.3956 30.9801C22.5517 32.2085 20.0986 32.7144 18.7222 32.9118C19.2935 31.4435 20.7843 29.313 22.9016 27.7464C24.3441 26.679 26.515 25.5504 29.2437 25.5504C29.9007 25.5504 30.5906 25.6159 31.3097 25.7634ZM16.8695 40.4104H6.4805C5.398 40.4104 4.61575 39.3748 4.91488 38.3328C5.61525 35.893 7.14638 33.7835 9.246 32.3474C11.6545 33.1278 14.2645 33.4066 16.8213 33.2366C16.8619 33.5503 16.986 33.8519 17.1894 34.1116C16.5165 36.2479 16.4431 38.4403 16.8695 40.4104ZM17.4007 31.3068C9.77775 32.0895 1.875 28.3699 1.875 20.7151C1.875 18.9729 2.28513 17.302 3.0925 15.7389C5.39937 15.9255 8.3345 15.5304 10.2795 14.2405C10.392 14.166 10.5324 14.1474 10.6646 14.1894C14.101 15.2828 22.0021 16.2345 27.1251 14.751C28.9981 17.6425 29.3289 20.9728 28.4645 23.699C25.6119 23.8861 23.337 25.0919 21.7864 26.2391C19.6653 27.8086 18.2032 29.7635 17.4007 31.3068ZM18.479 37.9058C18.479 36.8411 18.6381 35.7909 18.9479 34.7735C20.4047 34.5674 23.0007 34.0393 25.1161 32.7444C25.2167 32.9795 25.318 33.2306 25.4185 33.4948C25.7959 34.487 26.9482 34.9378 27.8991 34.4654C29.0565 33.89 30.6611 32.8081 31.9869 31.709C31.9945 31.7025 32.005 31.7026 32.0126 31.709C33.3386 32.8083 34.9432 33.8901 36.1005 34.4654C37.0496 34.9371 38.2031 34.4886 38.5811 33.4948C38.6815 33.231 38.7826 32.9799 38.8835 32.7444C40.999 34.0391 43.595 34.5674 45.0519 34.7735C45.3616 35.7908 45.5207 36.841 45.5207 37.9056C45.521 52.1634 18.479 52.1679 18.479 37.9058ZM42.2134 26.2391C40.6628 25.0919 38.3879 23.8861 35.5354 23.699C34.7525 21.2294 34.9683 18.3196 36.3112 15.7188C37.0819 15.9338 38.655 16.0293 39.5641 16.0293C42.573 16.0293 46.009 15.3326 48.4099 13.5725C48.5243 13.4886 48.684 13.4888 48.7982 13.5724C52.0555 15.9605 57.2171 16.3908 60.6344 15.7801C60.7236 15.7641 60.8107 15.7428 60.8969 15.7188C61.7019 17.2779 62.1251 18.9889 62.1251 20.7151C62.1251 28.3376 54.2686 32.0943 46.5994 31.3066C45.7968 29.7635 44.3348 27.8086 42.2134 26.2391ZM57.5195 40.4104H47.1305C47.5568 38.4405 47.4835 36.248 46.8106 34.1115C47.0137 33.852 47.1379 33.5509 47.1786 33.2376C49.7254 33.4053 52.3358 33.1308 54.754 32.3473C56.8536 33.7834 58.3848 35.8929 59.0853 38.3326C59.384 39.3733 58.6034 40.4104 57.5195 40.4104ZM56.41 22.0555C56.9277 22.0555 57.3475 21.6358 57.3475 21.118V19.618C57.3475 19.1003 56.9277 18.6805 56.41 18.6805C55.8923 18.6805 55.4725 19.1003 55.4725 19.618V21.118C55.4725 21.6358 55.8923 22.0555 56.41 22.0555ZM34.4411 40.4549C34.0506 40.1148 33.4585 40.1554 33.1184 40.5458C32.836 40.8699 32.4282 41.0558 32 41.0558C31.5718 41.0558 31.164 40.8699 30.8816 40.5458C30.5414 40.1554 29.9492 40.1149 29.5589 40.4549C29.1685 40.7951 29.1279 41.3873 29.468 41.7776C30.1066 42.5104 31.0295 42.9306 31.9999 42.9306C32.9702 42.9306 33.8932 42.5104 34.5317 41.7776C34.8721 41.3873 34.8314 40.795 34.4411 40.4549ZM17.902 20.4201C17.5116 20.08 16.9194 20.1206 16.5793 20.511C16.2381 20.9025 15.7456 21.1271 15.228 21.1271C14.7104 21.1271 14.218 20.9026 13.8767 20.5111C13.5366 20.1208 12.9444 20.0801 12.554 20.4203C12.1636 20.7604 12.123 21.3525 12.4631 21.743C13.1605 22.5433 14.1681 23.0023 15.2279 23.0023C16.2876 23.0023 17.2954 22.5434 17.9928 21.7431C18.333 21.3525 18.2924 20.7604 17.902 20.4201ZM40.7979 18.6805C40.2801 18.6805 39.8604 19.1003 39.8604 19.618V21.118C39.8604 21.6358 40.2801 22.0555 40.7979 22.0555C41.3156 22.0555 41.7354 21.6358 41.7354 21.118V19.618C41.7354 19.1003 41.3156 18.6805 40.7979 18.6805ZM39.6903 36.4925C38.2245 36.4925 37.0321 37.6849 37.0321 39.1506C37.0321 39.6684 37.4519 40.0881 37.9696 40.0881C38.4874 40.0881 38.9071 39.6684 38.9071 39.1506C38.9071 38.7188 39.2585 38.3675 39.6903 38.3675C40.1221 38.3675 40.4734 38.7189 40.4734 39.1506C40.4734 39.6684 40.8931 40.0881 41.4109 40.0881C41.9286 40.0881 42.3484 39.6684 42.3484 39.1506C42.3485 37.6849 41.156 36.4925 39.6903 36.4925ZM24.3096 36.4925C22.844 36.4925 21.6515 37.6849 21.6515 39.1506C21.6515 39.6684 22.0713 40.0881 22.589 40.0881C23.1068 40.0881 23.5265 39.6684 23.5265 39.1506C23.5265 38.7188 23.8779 38.3675 24.3096 38.3675C24.7415 38.3675 25.0928 38.7189 25.0928 39.1506C25.0928 39.6684 25.5125 40.0881 26.0303 40.0881C26.548 40.0881 26.9678 39.6684 26.9678 39.1506C26.9679 37.6849 25.7754 36.4925 24.3096 36.4925ZM51.3688 21.6893C51.7089 21.2989 51.6682 20.7068 51.2779 20.3665C50.8874 20.0264 50.2954 20.067 49.9551 20.4574C49.614 20.8489 49.1215 21.0734 48.6039 21.0734C48.0863 21.0734 47.5938 20.8489 47.2526 20.4574C46.9125 20.067 46.3202 20.0264 45.9299 20.3665C45.5395 20.7066 45.4989 21.2988 45.839 21.6893C46.5363 22.4895 47.544 22.9484 48.6039 22.9484C49.6637 22.9484 50.6715 22.4895 51.3688 21.6893Z" fill="#472B2F"/>
</svg>
