<svg width="460" height="70" viewBox="0 0 460 70" fill="none" xmlns="http://www.w3.org/2000/svg">
<g clip-path="url(#clip0_4003_536)">
<path d="M277.337 65.7155C277.121 65.7155 276.905 65.7155 276.69 65.6539C276.443 65.6231 276.136 65.5614 275.735 65.469C274.349 65.1607 273.056 64.4826 271.855 63.4346C271.331 62.9414 270.715 62.2017 270.037 61.1537C269.329 60.1057 268.744 59.0577 268.22 57.9789C267.112 55.5746 266.095 52.5848 265.233 49.0092C264.34 45.4337 263.785 41.9815 263.508 38.6834C263.416 37.7895 263.385 36.8956 263.385 35.9401C263.385 34.6763 263.447 33.4434 263.601 32.2721C263.755 31.1008 263.909 30.207 264.124 29.5905C265.048 27.1863 266.588 25.9841 268.806 25.9841C270.992 26.015 272.655 27.2787 273.764 29.7446C274.842 31.7789 275.704 35.4161 276.413 40.6561C276.597 41.889 276.844 43.2144 277.059 44.5707C277.306 45.9577 277.521 47.129 277.737 48.1462C277.953 49.1325 278.107 49.749 278.199 49.9339C278.291 49.9339 278.599 49.4099 279.154 48.3928C279.708 47.3756 280.386 46.081 281.156 44.5398C281.926 42.9987 282.696 41.365 283.465 39.7006C285.591 35.2312 288.424 30.2994 292.027 24.967C292.705 24.0114 293.228 23.2717 293.598 22.7785C293.968 22.2853 294.245 21.9155 294.491 21.6689C294.738 21.4223 295.015 21.2065 295.323 21.0216C295.754 20.7133 296.216 20.5284 296.709 20.4976H296.955C297.54 20.4976 298.095 20.7133 298.557 21.1449C299.018 21.5764 299.234 22.1312 299.234 22.8093C299.234 23.0251 299.049 23.7649 298.68 25.0903C298.31 26.4157 297.817 27.9568 297.201 29.7754C296.247 32.642 295.415 35.0462 294.676 36.9265C293.968 38.8375 293.167 40.6869 292.274 42.5363C291.719 43.7693 291.042 45.4029 290.241 47.4064C289.44 49.4099 288.732 51.321 288.147 53.0779C287.161 56.037 286.299 58.2563 285.56 59.7358C284.851 61.2153 284.081 62.325 283.281 63.0955C281.956 64.4518 280.478 65.284 278.846 65.5614C278.538 65.5923 278.261 65.6539 278.045 65.6847C277.829 65.7155 277.614 65.7464 277.429 65.7464L277.337 65.7155Z" fill="#EC5E27"/>
<path d="M313.894 65.284C313.062 65.284 312.323 65.2224 311.676 65.0991C311.307 65.0066 310.845 64.8833 310.291 64.6367C309.736 64.421 309.182 64.1744 308.689 63.9586C308.012 63.6504 307.426 63.3113 306.995 62.9723C306.533 62.6332 306.01 62.1708 305.394 61.5544C304.624 60.753 304.008 59.9824 303.546 59.2118C303.053 58.4412 302.529 57.3316 301.944 55.8521C300.897 53.0471 300.374 49.9648 300.374 46.5742C300.374 42.1664 301.205 37.882 302.899 33.69C304.932 29.0973 307.55 25.7067 310.753 23.4874C311.43 23.0559 312.046 22.7477 312.6 22.5627C313.155 22.3778 313.832 22.2853 314.572 22.2853L317.159 21.9771C317.805 21.8846 318.421 21.8538 319.068 21.8538C321.255 21.9463 323.257 22.4394 325.043 23.4258C326.398 24.1964 327.599 25.1827 328.615 26.4157C329.632 27.6486 330.679 29.3439 331.757 31.5015C333.02 34.214 333.666 37.4813 333.666 41.2726C333.666 42.6288 333.574 43.8309 333.358 44.9097C333.143 45.9577 332.773 47.3448 332.219 49.0092C330.371 54.8041 327.353 59.1502 323.103 62.0167C321.101 63.4038 319.284 64.3593 317.651 64.8217C316.419 65.0991 315.157 65.2532 313.894 65.2532V65.284ZM314.294 54.1259C314.664 54.1259 315.126 53.9718 315.742 53.6328C316.512 53.2321 317.374 52.5231 318.36 51.5059C319.345 50.4888 320.115 49.5024 320.731 48.5469C321.316 47.5605 321.809 46.6358 322.148 45.7728C322.487 44.9097 322.764 43.9234 322.949 42.8137C323.195 41.6424 323.318 40.5328 323.318 39.454C323.318 36.8648 322.641 34.8613 321.285 33.4742C320.731 32.9194 320.115 32.5187 319.499 32.2413C318.852 31.9947 318.021 31.8406 316.974 31.779H315.957C315.557 31.779 315.28 31.7789 315.126 31.8714C314.972 31.9331 314.787 32.0564 314.602 32.2105C314.448 32.3646 314.233 32.642 313.986 33.0119C313.74 33.3818 313.463 33.8133 313.247 34.3065C311.615 37.6354 310.783 41.2417 310.783 45.1563C310.814 49.1634 311.492 51.8142 312.816 53.1704C313.34 53.8177 313.863 54.1259 314.387 54.1259H314.294Z" fill="#EC5E27"/>
<path d="M345.955 67.1334C345.185 67.1334 344.507 66.9793 343.86 66.6403C341.489 65.7772 340.103 62.2325 339.672 56.037C339.148 49.41 338.902 43.5535 338.902 38.4676C338.902 34.9229 339.056 32.1488 339.333 30.1453C339.518 28.9124 339.826 27.6794 340.195 26.4773C340.565 25.2752 340.996 24.3505 341.489 23.6724C342.536 22.162 343.891 21.3915 345.616 21.3915L346.386 21.4531C348.049 21.6072 349.281 22.4703 350.051 24.0423C350.482 24.8129 350.821 25.7067 351.006 26.7547C351.19 27.8027 351.314 29.3131 351.314 31.2858C351.314 33.4742 351.19 36.5258 350.944 40.4095C350.698 44.5707 350.574 48.5469 350.574 52.3998C350.574 54.465 350.605 56.5302 350.698 58.5029V59.3967C350.698 60.3831 350.636 61.4003 350.513 62.4483C350.39 63.6196 350.143 64.5134 349.774 65.1299C349.404 65.7772 348.85 66.2704 348.141 66.6403C347.495 66.9485 346.786 67.1334 345.986 67.1334H345.955ZM345.462 16.4597C344.569 16.4597 343.676 16.2439 342.783 15.8124C342.197 15.5042 341.674 15.1035 341.273 14.6719C340.873 14.2404 340.503 13.6548 340.195 12.9458C340.042 12.6376 339.918 12.3602 339.857 12.1444C339.795 11.9287 339.764 11.6513 339.764 11.2814L339.888 9.37032C340.011 7.98326 340.195 6.87362 340.411 6.10303C340.657 5.33245 341.058 4.62351 341.674 3.97622C342.505 2.86657 343.799 2.31175 345.493 2.31175H346.571C346.879 2.34258 347.156 2.43505 347.402 2.52752C347.649 2.61999 347.895 2.74328 348.172 2.92822C350.051 3.97622 350.975 6.16468 350.975 9.52443V10.0484C350.975 11.004 350.882 11.8054 350.728 12.4218C350.574 13.0383 350.297 13.624 349.897 14.1788C348.665 15.7508 347.156 16.5214 345.4 16.5214L345.462 16.4597Z" fill="#EC5E27"/>
<path d="M372.626 67.1334C372.041 67.1334 371.425 67.1334 370.84 67.0718C366.435 66.6711 362.894 64.4826 360.183 60.4756C359.075 58.8111 358.182 56.7151 357.504 54.2801C356.857 51.8142 356.518 49.3791 356.518 46.9441C356.518 46.2351 356.518 45.557 356.58 44.9097C356.672 43.3994 356.826 42.1664 357.073 41.1801C357.319 40.1937 357.75 38.8992 358.397 37.2347C360.245 32.2721 362.801 28.2651 366.127 25.1827C367.051 24.3505 368.068 23.5491 369.207 22.7477C370.347 21.9771 371.332 21.3915 372.164 20.9907C373.95 20.1893 375.736 19.7578 377.492 19.727C380.449 19.727 383.22 20.6825 385.807 22.5936C386.885 23.4258 387.748 24.5354 388.394 25.9533C389.041 27.3404 389.349 28.7891 389.349 30.2686C389.349 30.8542 389.288 31.4707 389.164 32.0564C389.01 32.8269 388.641 33.69 388.025 34.7072C387.44 35.6935 386.793 36.5566 386.177 37.2347C384.576 38.6217 383.128 39.3307 381.804 39.3307C380.849 39.3307 380.141 38.9608 379.709 38.1902C379.679 38.0978 379.648 38.0361 379.648 37.9436V37.6354C379.648 37.2655 379.709 36.8032 379.833 36.2483C380.11 35.1387 380.264 33.9674 380.264 32.7653C380.264 31.7173 380.141 30.9467 379.894 30.4227C379.648 29.9912 379.34 29.5905 378.97 29.2823C378.601 28.974 378.231 28.7274 377.862 28.635L377.677 28.5733C377.092 28.5733 376.26 28.9124 375.244 29.5905C374.227 30.2686 373.242 31.1008 372.349 32.118C369.207 35.9401 367.606 40.1629 367.606 44.694C367.606 46.4817 367.852 48.2695 368.376 50.0264C369.361 53.1396 370.87 55.1739 372.872 56.0678C373.303 56.2219 373.796 56.3144 374.32 56.3144C375.952 56.3144 377.954 55.6055 380.295 54.1568C381.681 53.3245 382.882 52.1224 383.898 50.5504C384.576 49.5949 385.345 48.8551 386.208 48.3619C387.07 47.8688 387.902 47.6222 388.702 47.6222C389.38 47.6222 389.996 47.8071 390.55 48.177C391.105 48.5469 391.505 49.1017 391.751 49.8415C391.905 50.273 391.998 50.7354 391.998 51.2285C391.998 52.3382 391.567 53.6636 390.735 55.1739C388.425 59.7358 385.068 63.0956 380.664 65.3148C378.2 66.517 375.521 67.1026 372.626 67.1026V67.1334Z" fill="#EC5E27"/>
<path d="M415.22 65.6539C414.111 65.6539 413.033 65.5306 411.986 65.284C406.596 64.1127 402.685 61.4927 400.252 57.3624C398.219 53.8485 397.203 50.0881 397.203 46.081C397.203 42.413 398.065 38.7759 399.821 35.2312C401.545 31.6865 403.855 28.8815 406.689 26.8472C409.029 24.9978 411.678 24.1039 414.604 24.1039H414.912C418.145 24.1039 420.886 25.1519 423.104 27.2787C425.106 28.9432 426.091 31.1625 426.091 33.8749C426.091 36.5874 424.983 39.3307 422.796 42.1973C421.81 43.5227 420.425 44.7864 418.731 45.9885C417.006 47.2215 415.435 48.0229 413.988 48.4852C413.618 48.6085 413.279 48.7318 412.91 48.8551C411.431 49.5024 410.076 49.8107 408.844 49.8107C408.444 49.8107 408.013 49.7182 407.52 49.5641L407.274 49.5024H407.212V49.5641L407.274 49.8723C407.643 50.9819 408.29 51.9991 409.245 52.8622C409.892 53.417 410.6 53.9718 411.37 54.4958C412.14 55.0198 412.91 55.3897 413.618 55.6363C414.881 56.1911 416.267 56.4685 417.683 56.4685C418.607 56.4685 419.501 56.2836 420.363 55.9445C420.671 55.8212 421.379 55.4822 422.426 54.8965C423.474 54.3109 424.551 53.6636 425.629 52.893C426.738 52.0608 427.6 51.4443 428.186 51.0436C428.771 50.6429 429.171 50.3963 429.448 50.273C429.695 50.1497 429.972 50.0881 430.187 50.0881C430.742 50.0881 431.111 50.2114 431.327 50.4888C431.512 50.7354 431.635 51.2594 431.635 52.0299V52.8005C431.512 54.7732 430.896 56.561 429.787 58.1946C429.264 58.9652 428.555 59.7666 427.662 60.5989C426.769 61.4311 425.845 62.1708 424.952 62.8181C421.841 64.7292 418.607 65.6847 415.25 65.6847L415.22 65.6539ZM407.92 40.841C408.629 40.841 409.306 40.7177 409.953 40.4712C412.109 39.6389 413.741 38.1902 414.85 36.0942C415.22 35.2928 415.374 34.6455 415.374 34.1215C415.374 33.69 415.281 33.3509 415.127 33.1044C414.881 32.7961 414.604 32.5495 414.234 32.3646C413.865 32.1797 413.526 32.0872 413.156 32.0255H412.787C412.078 32.1488 411.277 32.5804 410.446 33.3818C409.614 34.1523 408.875 35.1079 408.228 36.2175C407.859 36.8648 407.52 37.6354 407.212 38.5601C406.904 39.4848 406.719 40.1321 406.719 40.4712C406.719 40.5636 406.719 40.6253 406.781 40.6869C406.812 40.7486 406.935 40.7794 407.089 40.8102C407.243 40.8102 407.52 40.8102 407.859 40.8102L407.92 40.841Z" fill="#EC5E27"/>
<path d="M445.987 67.1334C445.001 67.1334 443.985 67.0101 442.938 66.7635C439.396 65.9621 436.963 64.2052 435.639 61.4927C435.269 60.7222 434.961 59.8899 434.653 58.9652C434.345 58.0405 434.191 57.2391 434.13 56.561L434.068 55.9137C434.068 53.7561 435.023 51.6909 436.932 49.6874C437.025 49.5949 437.086 49.5333 437.179 49.4408C437.487 49.1325 437.733 48.886 437.887 48.7627C438.041 48.6394 438.195 48.5469 438.349 48.4853C438.503 48.4544 438.688 48.4236 438.965 48.4236C439.92 48.4236 440.536 48.8551 440.751 49.6874V49.749C440.751 49.749 440.813 49.9648 440.844 50.0881C440.844 50.1805 440.844 50.3038 440.844 50.4888C440.844 50.797 440.782 51.321 440.659 51.9991C440.628 52.3074 440.566 52.6464 440.536 53.0163L440.412 53.9718C440.412 54.9273 440.566 55.8521 440.905 56.7151C441.213 57.609 441.644 58.1946 442.168 58.5029C442.815 58.8727 443.492 59.0577 444.201 59.0577L445.155 58.9344C446.788 58.5645 448.02 57.7631 448.882 56.5302C449.19 56.0986 449.375 55.6055 449.375 55.0815C449.375 53.2937 447.434 50.5504 443.554 46.8824C439.642 43.122 437.271 39.6081 436.439 36.3408C436.285 35.7552 436.162 35.2312 436.101 34.7688C436.039 34.3373 436.008 33.6592 436.008 32.7961C436.008 31.6865 436.131 30.7001 436.378 29.8679C436.624 29.0357 437.025 28.0493 437.641 26.9397C438.195 25.9533 438.996 24.9362 440.043 23.8882C441.09 22.8402 442.045 22.1004 442.969 21.6072C444.724 20.7442 446.51 20.2818 448.297 20.2818H448.605C450.268 20.2818 451.9 20.6517 453.44 21.4223C453.994 21.6997 454.487 21.9771 454.887 22.2237C455.288 22.4703 455.719 22.8402 456.15 23.2717C457.228 24.3505 457.967 25.306 458.368 26.1383C458.768 26.9705 458.953 27.9877 458.953 29.1898C458.953 29.8371 458.953 30.3303 458.891 30.7001C458.86 31.07 458.737 31.4091 458.583 31.7173C457.628 33.9982 456.273 35.262 454.58 35.4778H454.148C453.656 35.4778 453.317 35.3236 453.07 34.9846C452.824 34.6764 452.578 34.0907 452.362 33.2585C452.146 32.6112 451.992 32.1488 451.838 31.8098C451.685 31.5015 451.438 31.1625 451.13 30.8543C450.021 29.683 448.943 29.1281 447.896 29.1281C447.311 29.1281 446.788 29.3439 446.326 29.7138C446.11 29.8371 445.987 29.9604 445.925 30.1145C445.864 30.2686 445.833 30.4535 445.833 30.731C445.833 30.9775 445.833 31.1933 445.925 31.3783C445.987 31.594 446.11 31.8098 446.295 32.0872C446.48 32.3646 446.757 32.7653 447.096 33.2893C447.404 33.7208 447.804 34.1832 448.266 34.6455C448.728 35.1079 449.405 35.6935 450.329 36.4025C451.592 37.4505 452.67 38.406 453.502 39.2382C454.333 40.1013 455.134 41.0568 455.904 42.074C458.614 45.7111 459.969 49.41 459.969 53.2321V54.0643C459.754 57.3316 458.491 60.229 456.15 62.6949C454.302 64.6676 451.9 65.993 448.913 66.7019C447.927 66.9485 446.942 67.0718 445.987 67.0718V67.1334Z" fill="#EC5E27"/>
<path d="M85.5262 32.8578C85.6186 31.6557 85.8034 30.546 86.019 29.4364C86.5426 26.7239 87.2201 24.0423 88.2673 21.4531C89.0064 19.5729 89.9304 17.7543 91.1623 16.1515C92.2094 14.7952 93.4106 13.624 95.0121 12.915C97.5375 11.8054 99.8473 12.3294 101.942 13.963C103.636 15.2576 104.775 17.0145 105.761 18.8639C106.5 20.251 107.085 21.6997 107.608 23.1792C107.762 23.6107 107.762 23.6108 108.224 23.5183C110.503 23.0559 112.783 22.8093 115.123 22.9635C116.848 23.0868 118.511 23.4258 120.02 24.2889C122.453 25.6451 123.531 27.7411 123.377 30.546C123.285 32.7037 122.484 34.6147 121.406 36.4333C119.681 39.3615 117.433 41.8274 114.969 44.1083C113.83 45.1563 112.629 46.1427 111.397 47.0982C111.273 47.1907 111.15 47.2831 110.996 47.4064C110.996 46.8824 111.089 46.4509 111.15 45.9886C111.304 44.8481 111.489 43.6768 111.643 42.5363C111.643 42.3514 111.735 42.2281 111.889 42.074C113.337 40.6869 114.784 39.2999 116.078 37.7587C117.433 36.1251 118.665 34.3989 119.435 32.3954C119.774 31.4707 119.897 30.5152 119.805 29.5288C119.712 28.45 119.004 27.7719 118.08 27.3096C117.187 26.878 116.263 26.6623 115.277 26.6006C113.183 26.4157 111.119 26.6314 109.056 27.0322C108.779 27.0938 108.84 27.2479 108.871 27.402C109.087 28.635 109.333 29.8987 109.549 31.1317C109.888 33.3201 110.072 35.5086 110.165 37.6971C110.288 40.0088 110.288 42.3514 110.165 44.6632C110.042 47.5606 109.703 50.4271 109.179 53.2937C109.118 53.5403 109.025 53.6328 108.779 53.6019C107.762 53.5403 106.746 53.5095 105.761 53.4787C105.483 53.4787 105.576 53.2937 105.576 53.1704C105.699 52.3074 105.822 51.4751 105.976 50.6121C106.377 48.1154 106.592 45.5879 106.623 43.0603C106.623 40.8102 106.685 38.5601 106.531 36.31C106.315 33.2893 105.884 30.3303 105.145 27.3712C104.529 24.8437 103.728 22.3778 102.465 20.0969C101.788 18.8331 100.987 17.6618 99.8473 16.7371C98.4922 15.6583 97.0139 15.6583 95.6588 16.7063C94.4577 17.631 93.6569 18.8331 92.9486 20.1277C91.5935 22.6244 90.7003 25.3369 90.1152 28.111C89.9612 28.8816 89.6224 29.4672 88.9756 29.9604C87.8361 30.8234 86.789 31.8098 85.6494 32.7961L85.5262 32.8578Z" fill="#EC5E27"/>
<path d="M96.398 55.7904C95.936 56.0678 95.5048 56.2219 95.0737 56.3761C92.5174 57.3316 89.9304 58.1946 87.2201 58.7495C84.2019 59.3659 81.1837 59.5817 78.1347 59.1193C76.3484 58.8419 74.8085 58.0713 73.515 56.7459C72.2523 55.4205 71.7595 53.8485 71.8211 52.0608C71.8827 49.8107 72.6835 47.8071 73.823 45.8961C74.7469 44.3241 75.8865 42.8754 77.0568 41.4883C77.2416 41.2726 77.2724 41.1493 77.0568 40.9027C75.3013 38.93 73.823 36.7724 72.7451 34.3373C71.9751 32.642 71.6671 30.8543 71.9135 29.0048C72.1599 27.0321 73.2686 25.5218 74.9317 24.5046C76.7796 23.3642 78.8431 22.9943 80.9989 22.9635C82.816 22.9635 84.6331 23.1484 86.4194 23.4566C86.635 23.4875 86.6966 23.5491 86.6042 23.7649C86.2038 24.6896 85.711 25.5526 85.2491 26.4465C85.0951 26.6931 84.9103 26.8164 84.6023 26.7856C83.8324 26.7239 83.0932 26.6623 82.3232 26.6006C80.6602 26.5082 79.0587 26.6006 77.488 27.2479C76.41 27.7103 75.6093 28.4192 75.4861 29.683C75.3937 30.7001 75.5477 31.6557 75.948 32.5804C76.872 34.7688 78.1963 36.6799 79.767 38.4368C79.9518 38.6218 80.0134 38.4985 80.1366 38.406C82.2001 36.4641 84.4483 34.738 86.789 33.166C91.2547 30.1453 95.9668 27.587 101.018 25.7067C101.664 25.4602 102.311 25.2136 102.989 25.0286C103.204 24.967 103.266 25.0286 103.328 25.2444C103.512 26.1999 103.636 27.1863 103.728 28.1418C103.728 28.3884 103.636 28.5425 103.42 28.635C102.989 28.8199 102.558 29.0048 102.096 29.159C97.8147 30.7618 93.8109 32.8886 89.992 35.3853C86.481 37.6971 83.1856 40.2862 80.2906 43.3994C78.5351 45.2796 76.9952 47.314 75.9788 49.7182C75.5477 50.7662 75.3321 51.845 75.5169 52.9855C75.6709 53.941 76.2252 54.5883 77.0876 55.0198C78.0731 55.5438 79.151 55.7288 80.2598 55.7904C83.5244 55.9753 86.6966 55.3281 89.8072 54.4342C89.992 54.3725 90.2076 54.3417 90.3615 54.2492C91.1315 53.8485 91.8399 53.9718 92.6098 54.3109C93.7185 54.8041 94.8581 55.2048 95.9668 55.6363C96.09 55.6979 96.2132 55.7288 96.398 55.8212V55.7904Z" fill="#EC5E27"/>
<path d="M113.614 59.3659C111.797 59.3043 109.918 59.2426 108.07 58.7803C107.824 58.7186 107.762 58.8727 107.67 59.0269C107.362 59.7666 107.085 60.5064 106.777 61.2153C105.915 63.2497 104.898 65.1916 103.42 66.856C102.496 67.9348 101.449 68.8595 100.125 69.4144C98.0919 70.2774 96.1208 70.0925 94.2113 69.0137C92.3942 67.9657 91.1007 66.3628 90.0228 64.6059C89.2528 63.3421 88.6369 62.0167 88.0825 60.6297C87.9901 60.3831 88.0209 60.2598 88.2673 60.1365C89.1296 59.705 90.0228 59.3351 90.9159 58.9652C91.1623 58.8727 91.2547 58.9036 91.3471 59.1502C91.8706 60.4756 92.4866 61.7393 93.195 62.9723C93.8417 64.0511 94.6733 64.9758 95.6588 65.7464C96.6136 66.4553 98.1535 66.517 99.1698 65.8697C100.217 65.1916 100.987 64.236 101.634 63.2189C102.65 61.6469 103.328 59.9516 103.974 58.2255C104.097 57.8864 103.974 57.7939 103.697 57.7015C101.603 57.0233 99.5394 56.2219 97.5067 55.3281C93.8109 53.6636 90.2999 51.7525 86.943 49.4716C84.9103 48.0845 82.9392 46.605 81.0913 44.9714C80.8757 44.7864 80.6909 44.6015 80.5062 44.3857C80.383 44.2624 80.3522 44.17 80.537 44.0467C81.4301 43.5227 82.2925 43.0295 83.1856 42.5055C83.4012 42.3822 83.5552 42.3822 83.74 42.5055C84.7871 43.3377 85.8342 44.17 86.9122 44.9714C89.4684 46.8516 92.1478 48.5469 94.9505 50.0264C97.9687 51.6292 101.11 53.0163 104.375 54.0643C106.777 54.8349 109.21 55.4205 111.705 55.6363C113.399 55.7904 115.092 55.7904 116.786 55.3589C117.248 55.2356 117.649 55.0815 118.08 54.8349C119.343 54.1568 119.866 52.9238 119.589 51.4443C119.281 49.6874 118.48 48.1462 117.525 46.6667C117.033 45.8961 116.448 45.1872 115.893 44.4782C115.708 44.2316 115.739 44.1392 115.986 43.985C116.817 43.461 117.679 42.9679 118.542 42.4747C118.665 42.413 118.788 42.3514 118.911 42.4747C120.728 44.7248 122.299 47.129 123.007 49.9956C123.315 51.1977 123.346 52.4615 123.1 53.6944C122.761 55.4514 121.683 56.7151 120.266 57.7015C119.004 58.5953 117.556 58.9652 116.047 59.1193C115.216 59.2118 114.415 59.2426 113.522 59.2426L113.614 59.3659Z" fill="#EC5E27"/>
<path d="M97.5991 46.5434C94.6117 46.5434 92.2094 44.2008 92.2094 41.2726C92.2094 37.6971 95.1353 35.8168 97.4451 35.786C100.556 35.786 102.958 38.1286 102.958 41.1493C102.958 44.17 100.617 46.5126 97.5991 46.5434Z" fill="#3F3C98"/>
<path d="M0 23.3025H10.9641L19.7416 51.6601H19.8956L28.0878 23.3025H39.052L47.8294 51.6601H47.9834L56.4221 23.3025H66.6162L52.8803 63.8045H42.8401L33.2311 36.1251H33.0771L24.5461 63.8045H14.1055L0 23.3025Z" fill="#3F3C98"/>
<path d="M131.693 23.3025H141.302V29.8063H141.456C142.41 27.7719 143.858 26.015 145.829 24.5354C147.8 23.0559 150.479 22.2853 153.836 22.2853C156.547 22.2853 158.826 22.7477 160.704 23.6416C162.583 24.5354 164.123 25.7376 165.293 27.1863C166.464 28.635 167.326 30.3303 167.819 32.2413C168.311 34.1524 168.589 36.1559 168.589 38.221V63.7737H158.487V43.2761C158.487 42.1664 158.425 40.9027 158.333 39.5156C158.21 38.1286 157.933 36.834 157.44 35.6319C156.947 34.4298 156.208 33.4126 155.191 32.5804C154.175 31.779 152.789 31.3474 151.065 31.3474C149.34 31.3474 147.954 31.6248 146.814 32.1797C145.675 32.7345 144.72 33.5051 143.95 34.4606C143.18 35.4161 142.657 36.5258 142.318 37.7587C141.979 38.9916 141.825 40.2862 141.825 41.6425V63.7429H131.693V23.3025Z" fill="#3F3C98"/>
<path d="M210.197 57.7015H210.043C208.595 60.1673 206.624 61.9859 204.13 63.0956C201.666 64.2052 198.986 64.7908 196.122 64.7908C192.981 64.7908 190.178 64.236 187.745 63.1572C185.312 62.0476 183.218 60.568 181.462 58.657C179.707 56.7459 178.382 54.4958 177.489 51.9067C176.596 49.3175 176.134 46.5434 176.134 43.5535C176.134 40.5636 176.596 37.7895 177.582 35.2004C178.536 32.6112 179.861 30.3611 181.585 28.45C183.31 26.539 185.374 25.0286 187.776 23.9498C190.178 22.8402 192.827 22.3162 195.691 22.3162C197.6 22.3162 199.294 22.5011 200.742 22.9018C202.189 23.3025 203.483 23.7957 204.622 24.4122C205.762 25.0286 206.717 25.6759 207.487 26.3849C208.257 27.0938 208.934 27.7719 209.427 28.45H209.673V0H219.775V63.8045H210.166V57.7323L210.197 57.7015ZM186.267 43.5535C186.267 45.1255 186.544 46.6358 187.067 48.1154C187.591 49.5641 188.392 50.8587 189.439 51.9991C190.486 53.1396 191.718 54.0335 193.196 54.7116C194.644 55.3897 196.307 55.7288 198.155 55.7288C200.003 55.7288 201.666 55.3897 203.113 54.7116C204.561 54.0335 205.823 53.1396 206.871 51.9991C207.918 50.8895 208.688 49.5949 209.242 48.1154C209.766 46.6667 210.043 45.1255 210.043 43.5535C210.043 41.9815 209.766 40.4712 209.242 38.9916C208.719 37.5429 207.918 36.2484 206.871 35.1079C205.823 33.9674 204.592 33.0735 203.113 32.3954C201.666 31.7173 200.003 31.3783 198.155 31.3783C196.307 31.3783 194.644 31.7173 193.196 32.3954C191.718 33.0735 190.486 33.9674 189.439 35.1079C188.392 36.2484 187.622 37.5429 187.067 38.9916C186.544 40.4403 186.267 41.9815 186.267 43.5535Z" fill="#3F3C98"/>
<path d="M231.109 23.395L241.241 23.3025L241.303 29.7138H241.457C242.566 27.3404 244.136 25.491 246.2 24.1964C248.263 22.871 250.666 22.2237 253.345 22.1929C253.961 22.1929 254.577 22.2545 255.162 22.347C255.747 22.4395 256.363 22.5936 256.979 22.7477L257.072 32.5495C256.24 32.3338 255.408 32.1488 254.577 32.0255C253.745 31.9023 252.945 31.8406 252.175 31.8406C249.803 31.8406 247.924 32.303 246.508 33.1968C245.091 34.0907 243.982 35.0771 243.243 36.2175C242.504 37.358 242.011 38.4676 241.765 39.6081C241.518 40.7486 241.395 41.5808 241.395 42.1356L241.58 63.8353L231.448 63.9278L231.078 23.4258L231.109 23.395Z" fill="#3F3C98"/>
</g>
<defs>
<clipPath id="clip0_4003_536">
<rect width="460" height="70" fill="white"/>
</clipPath>
</defs>
</svg>
