<svg width="64" height="64" viewBox="0 0 64 64" fill="none" xmlns="http://www.w3.org/2000/svg">
<path d="M47.6055 24.0744C46.04 22.1297 42.978 22.309 41.2126 24.0744L45.3778 19.9093C47.1431 18.1439 47.1431 15.2818 45.3778 13.5164C43.6124 11.751 40.7502 11.7512 38.9849 13.5164L40.8406 11.6607C42.606 9.89528 42.606 7.03316 40.8406 5.26778C39.0753 3.50241 36.2131 3.50241 34.4478 5.26778L30.72 8.99553C32.4852 7.23016 32.6256 4.13228 30.72 2.60266C26.3219 -0.927342 16.9668 9.37066 11.0101 16.8054V11.6363C11.0101 8.85478 8.75525 6.59991 5.97388 6.59991C3.19237 6.60003 0.9375 8.85491 0.9375 11.6363V19.8668H0.94475C0.94475 27.4288 0.570875 34.7924 9.14 43.3615C14.8425 49.064 24.7304 50.3432 31.7635 45.5953C36.0646 42.6918 52.0231 29.5619 47.6055 24.0744Z" fill="#E9A982"/>
<path d="M23.4322 43.4465C24.6374 41.9495 26.9945 42.0875 28.3535 43.4465L25.1472 40.2403C23.7882 38.8813 23.7882 36.678 25.1472 35.319C26.5062 33.9601 28.7095 33.9601 30.0685 35.319L28.64 33.8905C27.281 32.5315 27.281 30.3283 28.64 28.9693C29.999 27.6103 32.2022 27.6103 33.5612 28.9693L36.4309 31.8389C35.0719 30.4799 34.9639 28.0951 36.4309 26.9176C39.8167 24.2001 47.0184 32.1275 51.6036 37.8508V33.8716C51.6036 31.7304 53.3394 29.9946 55.4806 29.9946C57.6217 29.9946 59.3576 31.7304 59.3576 33.8716V40.2074H59.3521C59.3521 46.0286 59.64 51.6971 53.0435 58.2936C48.6537 62.6834 41.042 63.6681 35.6279 60.0131C32.3165 57.7781 20.0316 47.6708 23.4322 43.4465Z" fill="#FFD3BC"/>
<path d="M47.668 6.43029C47.668 10.4882 52.2041 13.1605 54.5622 14.2844C55.0705 14.5267 55.6601 14.5267 56.1683 14.2844C58.5265 13.1605 63.0626 10.4882 63.0626 6.43029C63.0626 3.84454 60.9665 1.74841 58.3807 1.74841C57.3331 1.74841 56.3661 2.09266 55.5861 2.67404C55.4547 2.77191 55.276 2.77191 55.1446 2.67404C54.3646 2.09279 53.3976 1.74841 52.35 1.74841C49.7641 1.74841 47.668 3.84454 47.668 6.43029Z" fill="#FF6E80"/>
<path d="M16.4749 36.6535C16.9827 36.7428 17.4705 36.4043 17.5605 35.8924C18.5649 30.1754 17.7693 25.1755 15.2599 21.4333C14.9715 21.0031 14.3891 20.8884 13.9591 21.1766C13.5291 21.4651 13.4143 22.0474 13.7026 22.4774C15.9373 25.81 16.6327 30.3366 15.7137 35.5679C15.6241 36.0779 15.9649 36.5639 16.4749 36.6535ZM55.3653 1.68777C51.6846 -0.662227 46.7305 1.96527 46.7305 6.43027C46.7305 10.9201 51.3846 13.8084 54.159 15.1305C54.9256 15.496 55.805 15.4958 56.5718 15.1305C59.346 13.8085 64 10.92 64 6.43027C64 1.97377 59.0553 -0.667602 55.3653 1.68777ZM55.7651 13.438C55.511 13.5591 55.2195 13.5591 54.9656 13.438C53.0533 12.5268 48.6055 10.0195 48.6055 6.4304C48.6055 3.34377 52.139 1.6034 54.5843 3.42577C55.0519 3.77402 55.6798 3.77377 56.1461 3.42577C58.5921 1.60315 62.125 3.34415 62.125 6.43027C62.125 10.0195 57.6772 12.5266 55.7651 13.438ZM55.4803 29.0573C52.8256 29.0573 50.6658 31.217 50.6658 33.8718V35.2301C49.5344 33.8856 48.4546 32.6765 47.4294 31.6039C49.5872 28.1501 49.8933 25.4213 48.3358 23.4865C47.4966 22.4443 46.2625 21.8285 44.8602 21.7528L46.0406 20.5724C48.1734 18.4396 48.1739 14.9869 46.0406 12.8536C45.015 11.8281 43.6794 11.2968 42.3327 11.2598C43.5816 9.16465 43.3051 6.40677 41.5036 4.60502C39.3755 2.47702 35.9129 2.47702 33.7848 4.60515L33.0274 5.36252C32.9471 3.39602 31.7081 1.68765 29.9374 1.1424C29.4424 0.989398 28.9179 1.2674 28.7654 1.76215C28.6129 2.25702 28.8904 2.78165 29.3853 2.93415C29.6581 3.01827 29.9028 3.14915 30.1331 3.33415C31.5944 4.50665 31.4299 6.9594 30.0574 8.33252C30.04 8.3499 23.0293 15.3605 23.0161 15.3736C22.65 15.7399 22.65 16.3334 23.0161 16.6995C23.3824 17.0656 23.9759 17.0655 24.342 16.6995C24.9241 16.1174 34.1418 6.89977 35.1105 5.93102C36.5073 4.53402 38.7805 4.5339 40.1775 5.9309C41.5745 7.32802 41.5745 9.60102 40.1775 10.9979L38.3216 12.8538L29.5543 21.6213C29.1881 21.9875 29.1881 22.581 29.5543 22.9471C29.9205 23.3133 30.514 23.3131 30.88 22.9471L39.6475 14.1796C41.0445 12.7826 43.3173 12.7826 44.7145 14.1796C46.1145 15.5796 46.1149 17.846 44.7144 19.2465C43.4051 20.5558 39.8963 24.0646 38.5019 25.459C36.3528 25.2213 34.7864 26.6854 34.4865 28.5695C34.34 28.4661 33.2689 27.0126 31.0999 27.0126C27.8399 27.0126 25.6869 30.4456 27.1404 33.3891C26.1695 33.4914 25.2261 33.9138 24.4838 34.6564C22.7615 36.3786 22.7615 39.181 24.4838 40.9035L25.074 41.4938C23.1295 41.8124 21.5975 43.505 21.9613 45.9178C22.0389 46.4331 22.1994 46.9814 22.4405 47.5613C17.6734 47.6918 13.0291 45.9254 9.8025 42.6988C1.85325 34.7489 1.86675 27.963 1.881 20.7788C1.88288 19.8694 1.8825 20.1998 1.875 11.6363C1.875 9.37627 3.71375 7.53752 5.97375 7.53752C8.23388 7.53752 10.0726 9.37627 10.0726 11.6363V16.8054C10.0726 17.6886 11.1891 18.0814 11.7417 17.3915C17.5732 10.1128 22.3186 5.49277 25.8463 3.65952C26.3058 3.42077 26.4846 2.85477 26.2458 2.39527C26.0069 1.9359 25.441 1.7569 24.9816 1.99577C21.5759 3.76577 17.1971 7.85777 11.9476 14.173V11.6363C11.9476 8.3424 9.26775 5.66252 5.97375 5.66252C2.67975 5.66252 0 8.34227 0 11.6363C0.00325 22.6349 0.008 19.8079 0.006 20.7749C-0.008375 28.026 -0.02325 35.524 8.47713 44.0244C12.1803 47.7275 17.6745 49.8116 23.4059 49.3914C24.3948 50.9678 25.869 52.7298 27.8216 54.6646C30.6335 57.4508 33.7166 59.8544 35.1027 60.7903C40.8681 64.6824 48.979 63.6831 53.7059 58.9568C54.6949 57.9676 55.575 56.9545 56.3219 55.9455C56.6299 55.5294 56.5423 54.9423 56.1261 54.6343C55.71 54.3263 55.1229 54.4139 54.8149 54.83C54.123 55.7648 53.3039 56.7071 52.38 57.6308C48.1753 61.8355 41.0469 62.5405 36.1519 59.2363C34.8243 58.3399 31.8615 56.0281 29.1414 53.3326C27.1558 51.365 22.4016 46.2213 24.1624 44.0343C25.0109 42.9803 26.7225 43.1414 27.6904 44.1094L32.9194 49.3384C33.2858 49.7045 33.8791 49.7044 34.2453 49.3384C34.6114 48.9721 34.6114 48.3786 34.2453 48.0125C33.3189 47.0861 26.738 40.5055 25.8099 39.5773C24.8186 38.5859 24.8186 36.973 25.8099 35.9818C26.8011 34.9905 28.4141 34.9905 29.4053 35.9818L36.5809 43.1574C36.9473 43.5235 37.5406 43.5234 37.9068 43.1574C38.2729 42.7911 38.2729 42.1976 37.9068 41.8315C37.5219 41.4466 29.3211 33.2461 29.3024 33.2275C28.3111 32.2361 28.3111 30.6233 29.3024 29.6319C30.2963 28.6383 31.9041 28.6383 32.8978 29.6319C32.9924 29.7265 41.601 38.3353 41.6139 38.348C41.9803 38.7141 42.5736 38.714 42.9398 38.348C43.3059 37.9818 43.3059 37.3883 42.9398 37.0221C42.7975 36.8799 36.9594 31.0419 37.0924 31.175C36.1324 30.2141 35.9917 28.4716 37.017 27.6485C37.7725 27.0425 39.4173 26.9471 42.9625 29.9355C45.2064 31.827 47.8673 34.6873 50.8714 38.4369C51.4238 39.126 52.5406 38.7348 52.5406 37.8506V33.8715C52.5406 32.2506 53.8593 30.932 55.4801 30.932C57.101 30.932 58.4196 32.2506 58.4196 33.8715C58.4128 41.782 58.4136 40.2154 58.4151 40.9095C58.422 44.3943 58.4285 47.6858 56.938 51.1705C56.7344 51.6465 56.9553 52.1975 57.4313 52.4011C57.9075 52.6051 58.4583 52.3838 58.6619 51.9079C60.3305 48.0073 60.2946 44.444 60.2946 40.2075V33.8716C60.2946 31.217 58.1349 29.0573 55.4803 29.0573ZM40.5423 26.0708L41.8756 24.7374C43.2578 23.3549 45.674 23.1706 46.8753 24.6623C47.8335 25.8525 47.5611 27.7238 46.0708 30.2311C44.513 28.7178 42.5204 26.9866 40.5423 26.0708Z" fill="#472B2F"/>
</svg>
