<svg width="24" height="24" viewBox="0 0 24 24" fill="none" xmlns="http://www.w3.org/2000/svg">
<path d="M7.00091 0.0809877C8.99877 -0.0269963 15.0011 -0.0269955 16.999 0.0809877C18.9333 0.188484 20.6302 0.617476 22.0068 1.99407C23.383 3.37057 23.8114 5.0668 23.9189 7.00091C24.0269 8.99884 24.0269 15.001 23.9189 16.999C23.8115 18.9311 23.3838 20.5751 22.0058 22.0068C20.6293 23.3827 18.9329 23.8114 16.999 23.9189C15.001 24.0269 8.99884 24.0269 7.00091 23.9189C5.06904 23.8115 3.42561 23.3834 1.99407 22.0058C0.616469 20.5743 0.188346 18.9308 0.0809877 16.999C-0.0269955 15.0011 -0.0269963 8.99877 0.0809877 7.00091C0.188471 5.06697 0.617161 3.37051 1.9931 1.99407C3.42475 0.616067 5.06882 0.188368 7.00091 0.0809877ZM11.1054 1.94134C10.303 1.93196 9.32918 1.9207 8.37103 1.94915C7.00781 1.98964 5.64707 2.11111 4.8388 2.44525C3.72673 2.89027 2.89062 3.72538 2.44525 4.78314V4.78509C2.11148 5.61949 1.98967 6.99313 1.94915 8.35736C1.92061 9.31839 1.93195 10.2886 1.94134 11.079C1.94532 11.4139 1.94915 11.7165 1.94915 11.9726C1.94915 12.2385 1.94535 12.5511 1.94134 12.8945C1.93196 13.6969 1.9207 14.6707 1.94915 15.6288C1.98964 16.992 2.11113 18.3528 2.44525 19.1611C2.89045 20.2736 3.72631 21.1094 4.8388 21.5546C5.64706 21.8888 7.00779 22.0102 8.37103 22.0507C9.32919 22.0792 10.303 22.0679 11.1054 22.0585C11.4488 22.0545 11.7613 22.0507 12.0273 22.0507C12.2833 22.0507 12.5859 22.0546 12.9208 22.0585C13.7113 22.0679 14.6815 22.0793 15.6425 22.0507C17.0066 22.0102 18.3803 21.8893 19.2148 21.5556L19.2167 21.5546C20.2702 21.1111 21.1631 20.277 21.5556 19.1591C21.889 18.3506 22.0103 16.9908 22.0507 15.6288C22.0792 14.6707 22.0679 13.6969 22.0585 12.8945C22.0545 12.5511 22.0507 12.2385 22.0507 11.9726C22.0507 11.7165 22.0546 11.4139 22.0585 11.079C22.0679 10.2886 22.0793 9.31839 22.0507 8.35736C22.0102 6.99324 21.8893 5.61951 21.5556 4.78509L21.5546 4.78314C21.1112 3.72999 20.2775 2.83689 19.2138 2.44427C18.3792 2.11098 17.0059 1.98965 15.6425 1.94915C14.6815 1.92061 13.7113 1.93195 12.9208 1.94134C12.5859 1.94532 12.2833 1.94915 12.0273 1.94915C11.7613 1.94915 11.4488 1.94535 11.1054 1.94134ZM12.0273 5.87103C15.3692 5.87116 18.1287 8.63066 18.1288 11.9726C18.1288 15.3681 15.37 18.075 12.0273 18.0751C8.63101 18.0751 5.92571 15.3689 5.92571 11.9726C5.92589 8.62989 8.6318 5.87103 12.0273 5.87103ZM12.0273 7.84759C9.68878 7.84759 7.84777 9.68612 7.84759 11.9726C7.84759 14.3133 9.74277 16.1523 12.0273 16.1523C14.3138 16.1521 16.1523 14.3111 16.1523 11.9726C16.1521 9.68726 14.3126 7.84772 12.0273 7.84759ZM18.4667 4.19329C19.2112 4.19344 19.8064 4.78865 19.8066 5.53314C19.8066 6.27779 19.2113 6.87283 18.4667 6.87298C17.722 6.87298 17.1269 6.27788 17.1269 5.53314C17.1271 4.78856 17.7221 4.19329 18.4667 4.19329Z" fill="#472B2F"/>
</svg>
