<svg width="114" height="12" viewBox="0 0 114 12" fill="none" xmlns="http://www.w3.org/2000/svg">
<path d="M111.93 8.8676C110.629 7.63957 108.989 7.2013 108.237 7.31921C106.795 7.58173 106.224 8.04669 104.692 9.13456C104.509 9.27694 104.326 9.41933 104.143 9.56171C103.001 10.4827 101.846 11.4594 100.402 11.8442C98.0208 12.5517 96.019 10.7586 94.3325 9.31699C92.2712 7.50164 90.3686 6.10008 89.0591 5.95548C86.6715 5.57283 84.7293 6.74747 83.2235 8.00887C79.7755 10.9877 76.8346 13.4015 72.421 10.4827C69.4051 8.49163 67.9368 5.92655 65.1656 4.62956C63.5607 3.90653 62.0902 4.11788 60.0774 6.40264C57.6678 9.36148 55.6726 12.5584 51.345 11.0678C49.718 10.5406 48.4239 9.37261 47.1276 8.29808C45.15 6.63623 43.9088 5.41933 42.0966 4.88985C40.5887 4.52055 39.5944 4.56949 38.2849 5.39263C33.9374 8.3181 32.2244 11.8887 25.8223 7.72633C22.9739 5.85981 20.6701 2.72967 19.3011 3.11009C18.4302 3.3993 17.6388 4.05336 16.3248 5.83757C14.6053 8.27583 12.8592 11.4482 9.38255 10.8854C6.92442 10.5317 4.59416 9.18573 3.25155 7.0478C2.49096 5.99552 1.84502 4.8676 1.2167 3.73078C0.863968 3.09897 0.509027 2.46716 0.15629 1.83534C0.0681063 1.69519 0.019605 1.54391 0.0129912 1.38151C-0.187628 0.0778332 1.59149 -0.538407 2.25066 0.600636C3.59106 2.92989 4.93146 5.64624 6.26524 6.90097C6.34681 6.97439 6.43059 7.04558 6.51657 7.11454C6.59814 7.17683 6.69955 7.25025 6.78333 7.30364C7.12063 7.54391 7.47778 7.75748 7.85256 7.93323C9.1158 8.39819 9.68899 8.54057 10.4143 8.49385C10.5841 8.44491 10.8023 8.53167 11.7128 7.85981C11.984 7.63957 12.2199 7.37928 12.4425 7.11009C12.6167 6.95214 12.5373 6.96104 12.9849 6.38262C14.7045 4.04891 16.6886 0.362595 20.0374 0.689625C22.0811 0.963262 23.4435 2.72299 24.9603 3.9577C26.3315 5.13234 26.455 5.26805 27.9497 6.16905C29.1578 6.78084 29.1182 6.86983 30.6283 7.18128C31.8585 7.34813 33.1195 6.31365 35.3903 4.49163C36.8012 3.36371 38.3731 2.28918 40.2382 2.24914C41.9974 2.14013 43.7391 2.72077 45.2118 3.67072C46.8498 4.72967 49.6452 7.33034 50.3463 7.78195C51.8322 8.81643 52.3767 8.90765 53.5385 9.00331C53.662 9.00331 53.7281 8.99886 53.7546 8.99886C55.4587 8.69852 56.6558 6.66293 58.5011 4.51832C59.9054 2.93879 61.8962 1.63734 64.0765 1.83312C67.9236 2.26693 70.2693 5.78195 73.1176 8.01554C75.7896 9.85537 76.828 9.80642 79.5132 7.94435C80.9417 6.82088 82.2358 5.50609 83.8342 4.62066C85.966 3.41265 88.6204 3.03445 90.922 3.9666C92.5622 4.63623 93.9269 5.81532 95.2783 6.93879C97.1191 8.55614 98.2589 9.3904 98.9908 9.53946C100.373 9.62845 101.222 8.74524 102.695 7.62177C104.906 5.79307 107.675 4.08228 110.596 5.25025C111.52 5.59953 112.393 6.08451 113.158 6.71855C113.574 7.0389 114.017 7.43045 113.998 8.00442C114.006 9.07005 112.668 9.63735 111.927 8.86983L111.93 8.8676Z" fill="#A9D957"/>
</svg>
