<svg width="21" height="21" viewBox="0 0 21 21" fill="none" xmlns="http://www.w3.org/2000/svg">
<path d="M17.7698 0C14.9188 0.355764 12.0503 0.649784 9.23717 1.24958C7.48226 1.61711 5.74192 2.06108 4.01324 2.53445C2.46238 2.95784 2.46238 5.21885 4.01324 5.654C4.48258 5.80101 4.94608 5.63342 5.39793 5.50993C5.98679 5.35116 6.57856 5.19533 7.17034 5.04832C9.13806 4.55437 11.1233 4.11334 13.1318 3.82814C14.7643 3.59586 14.7497 3.60468 16.799 3.35477C17.5162 3.22834 18.3586 3.343 18.9038 2.76378C19.9095 1.79646 19.1632 -0.0294036 17.7698 0.00293858V0Z" fill="#FAAF71"/>
<path d="M18.0672 5.80691C14.4641 8.52953 10.7443 11.0963 6.93716 13.5249C5.45918 14.454 3.97246 15.3655 2.47699 16.2652C1.52082 16.9414 -0.231175 17.3972 0.0253576 18.882C0.0807452 19.6758 0.832852 20.2786 1.59953 20.2844C2.25253 20.2933 2.75684 19.8228 3.30489 19.5317C3.89083 19.1819 4.47386 18.829 5.05689 18.4792C7.76506 16.8415 10.4412 15.1509 13.0502 13.3544C14.7235 12.2018 16.3939 11.0463 18.0293 9.84086L19.6851 8.60009C20.0436 8.3884 20.3118 8.03558 20.4226 7.63277C20.822 6.28028 19.2653 5.06598 18.0672 5.80691Z" fill="#FAAF71"/>
</svg>
