<svg width="77" height="93" viewBox="0 0 77 93" fill="none" xmlns="http://www.w3.org/2000/svg">
<path d="M74.9504 74.6643C74.2778 74.3136 73.4705 74.4321 72.7377 74.3057C71.1523 74.1518 69.5651 74.0157 67.979 73.8981C66.3821 73.7868 64.7833 73.7054 63.1785 73.7138C62.1723 73.7181 61.1641 73.7189 60.158 73.7232C59.7231 73.7467 59.2488 73.647 58.8492 73.8657C57.2305 74.5004 57.7371 76.9799 59.4659 76.9592C64.3747 76.8408 69.2706 77.1421 74.1458 77.6783C75.7534 77.6707 76.3386 75.4867 74.9532 74.665L74.9504 74.6643Z" fill="#cf866e"/>
<path d="M70.4548 89.629C69.9448 88.8744 69.0034 88.5582 68.3019 88.0111C64.6802 85.6465 62.4714 83.9893 59.6203 81.6547C58.0907 80.1886 55.9017 82.3659 57.3346 83.9339C60.7945 86.8122 64.4606 89.4169 68.249 91.8353C69.6442 92.6657 71.2637 91.048 70.4548 89.629Z" fill="#cf866e"/>
<path d="M19.1102 16.8326C17.9063 13.4249 16.6994 10.0172 15.6295 6.56251C15.1077 4.9013 14.6005 3.23715 14.1049 1.57006C13.8455 -0.258744 11.5017 -0.617448 10.8983 1.18489C10.8225 1.47009 10.8225 1.75823 10.8983 2.04343C11.184 3.00782 11.4726 3.97514 11.767 4.93659C12.4579 7.20054 13.1692 9.45861 13.9271 11.702C14.4956 13.3867 15.0961 15.0597 15.682 16.7385C15.9531 17.4207 16.0552 18.2733 16.7548 18.6585C17.9471 19.3965 19.5096 18.1881 19.1102 16.8326Z" fill="#cf866e"/>
<path d="M9.99748 11.3933C7.5371 9.50272 5.07963 7.61511 2.61926 5.72456C0.759395 4.70432 -0.788544 7.37695 1.00135 8.51775C2.84081 9.93199 4.68026 11.3462 6.51971 12.7575C7.14064 13.2338 7.75865 13.7101 8.37957 14.1865C8.56323 14.3041 8.76146 14.3687 8.97426 14.3776C10.6825 14.6598 11.4871 12.2636 9.99748 11.3933Z" fill="#cf866e"/>
</svg>
