<svg width="64" height="62" viewBox="0 0 64 62" fill="none" xmlns="http://www.w3.org/2000/svg">
<path d="M31.1908 43.2104L35.8143 23.139H50.3625C50.3625 31.5201 53.1919 32.957 54.7432 32.957C59.4684 32.957 63.2736 36.8972 63.0519 41.6714C62.855 45.9107 59.4297 49.3584 55.1915 49.581C52.9171 49.7005 50.83 48.905 49.2633 47.5304C48.3962 46.7697 47.052 46.8994 46.4071 47.8558C44.9133 50.0711 42.3816 51.5282 39.5085 51.5282C34.9148 51.5283 31.1908 47.8043 31.1908 43.2104Z" fill="#A9D957"/>
<path d="M27.1821 27.9097C15.4005 27.938 15.0738 31.0434 8.70415 31.3589C4.65799 31.5593 1.12731 28.5051 0.944941 24.4581C0.757695 20.3021 4.0715 16.874 8.18616 16.874C11.4287 16.874 11.715 13.3057 11.7152 8.66002C11.7155 4.64735 15.0168 1.29267 19.0293 1.32655C23.616 1.36517 26.715 5.47183 26.1503 9.57062C25.9879 10.7487 26.8263 11.8497 28.0091 11.9716C31.5528 12.3366 34.4968 15.321 34.5145 19.1523C34.533 23.1766 31.2064 27.9 27.1821 27.9097Z" fill="#FF6E80"/>
<path d="M32.0993 42.7759C38.0728 39.8571 44.6218 35.5539 50.1979 29.9778C61.5295 18.6462 57.6081 13.0267 53.4982 8.91688C49.3884 4.80709 43.7689 0.88555 32.4373 12.2172C26.8611 17.7933 22.558 24.3423 19.6392 30.3158L32.0993 42.7759Z" fill="#E9A982"/>
<path d="M24.0739 52.5319C27.6589 48.9468 27.3884 42.8639 23.4698 38.9453C19.5511 35.0266 13.4682 34.7562 9.88319 38.3412C5.04105 43.1833 6.66364 47.5135 4.16381 51.9585C3.16096 53.7417 4.10769 56.0039 6.07252 56.5736C12.8438 58.5371 19.3282 57.2776 24.0739 52.5319Z" fill="#F2EA9F"/>
<path d="M31.2943 31.1209C33.3831 33.2097 35.4518 35.8033 36.9113 38.2025C37.8402 39.7298 37.4321 41.7174 35.9607 42.7327C33.9 44.1544 31.925 45.3688 30.3722 46.2174C29.0291 46.9513 27.3853 46.8432 26.1472 45.9435C24.5213 44.7619 22.6912 43.205 20.9507 41.4646C19.2103 39.7241 17.6534 37.894 16.4718 36.268C15.5721 35.0299 15.464 33.3862 16.1978 32.0431C17.0464 30.4903 18.2609 28.5153 19.6826 26.4546C20.6979 24.9832 22.6854 24.575 24.2128 25.504C26.6119 26.9634 29.2054 29.0321 31.2943 31.1209Z" fill="#716667"/>
<path d="M7.9535 41.7465C7.47776 40.8054 6.13304 40.8469 5.71117 41.8132C4.2132 45.2445 4.50632 48.3468 2.88073 51.237C1.41551 53.8425 2.78073 57.1516 5.66267 57.9875C7.832 58.6165 9.98696 58.9355 12.0675 58.9355C15.6903 58.9355 19.0454 57.9717 21.9502 56.1204C22.8968 55.517 22.6803 54.0766 21.5942 53.7932C14.8827 52.0427 10.3508 46.4884 7.9535 41.7465Z" fill="#928FFB"/>
<path d="M53.1594 57.7409C53.6476 55.6756 52.3691 53.6056 50.3038 53.1174C48.2385 52.6292 46.1685 53.9077 45.6803 55.973C45.1921 58.0383 46.4706 60.1083 48.5359 60.5965C50.6012 61.0847 52.6712 59.8062 53.1594 57.7409Z" fill="#A9D957"/>
<path d="M61.4387 34.8849C59.6749 33.037 57.297 32.0194 54.7433 32.0194C54.2228 32.0194 52.9743 31.7461 52.1199 29.3382C56.547 24.601 58.6632 20.4606 58.5761 16.7173C58.4909 13.0646 56.2966 10.3893 54.1614 8.25382C52.0261 6.11862 49.3508 3.92416 45.698 3.83917C40.3351 3.71617 35.0452 8.20382 31.2811 12.0557C30.3012 11.5021 29.2173 11.1535 28.1055 11.039C27.4507 10.9718 26.9889 10.3528 27.0791 9.69867C27.7227 5.02877 24.1849 0.432239 19.0375 0.38899C17.6449 0.37924 16.2616 0.733233 15.0385 1.41872C14.5869 1.67184 14.4259 2.2432 14.6789 2.69482C14.9319 3.14656 15.5034 3.30718 15.955 3.05443C16.8791 2.53669 17.9207 2.2637 18.9708 2.2637C22.9367 2.2637 25.7234 5.80262 25.2218 9.44267C24.9918 11.1116 26.1698 12.7243 27.9133 12.9041C28.6133 12.9762 29.2986 13.1716 29.939 13.4735C27.024 16.6505 24.3569 20.2127 21.9861 24.0971C20.7821 24.227 19.6448 24.8586 18.9109 25.9221C18.4215 26.6314 17.9454 27.3473 17.4927 28.0526C13.9661 29.0107 12.4313 30.2356 8.658 30.4223C5.11546 30.6027 2.04015 27.9303 1.88165 24.4157C1.71815 20.7893 4.60272 17.8112 8.18639 17.8112C12.6524 17.8112 12.6527 12.522 12.6529 8.65981C12.6529 7.65583 12.8842 6.68973 13.34 5.78825C13.5738 5.32638 13.3887 4.76227 12.9265 4.52865C12.4648 4.29503 11.9006 4.48003 11.6669 4.94202C11.0853 6.09187 10.778 7.37734 10.778 8.65981C10.7777 14.1681 10.148 15.9363 8.18639 15.9363C3.52349 15.9363 -0.20268 19.8142 0.00869091 24.5002C0.215686 29.0942 4.21248 32.5186 8.75075 32.2951C11.9891 32.1347 13.771 31.2822 15.9982 30.4908C15.7779 30.8698 15.569 31.2388 15.3752 31.5933C14.8065 32.6339 14.6501 33.8335 14.8889 34.96C12.7187 35.219 10.7402 36.1585 9.22062 37.6782C8.42288 38.4759 7.75927 39.2928 7.20391 40.1564C6.21631 39.9956 5.25883 40.5066 4.85209 41.438C3.32362 44.9397 3.57624 48.0883 2.06365 50.7777C0.30181 53.9102 1.93915 57.8839 5.4017 58.8879C11.2208 60.5757 17.2819 60.2076 22.4542 56.911C23.3102 56.3654 23.6721 55.3679 23.3976 54.4083C23.8596 54.0281 24.3087 53.6232 24.7369 53.195C26.2566 51.6751 27.1954 49.6964 27.4541 47.5264C28.6417 47.7785 29.8319 47.5812 30.8218 47.0401C30.8913 47.0021 30.9622 46.9627 31.0328 46.9236C32.4907 50.2367 35.8254 52.4657 39.5087 52.4657C42.5899 52.4657 45.4593 50.9384 47.1846 48.3801C47.5115 47.8947 48.2002 47.8447 48.6453 48.2352C50.468 49.8344 52.8127 50.6453 55.2409 50.5172C56.0096 50.4769 56.7712 50.3397 57.5046 50.1092C57.9986 49.9539 58.2731 49.4277 58.1179 48.9338C57.9627 48.4398 57.4362 48.1655 56.9426 48.3205C56.3596 48.5037 55.754 48.6128 55.1426 48.645C53.2049 48.7473 51.3348 48.1008 49.882 46.8259C48.5806 45.6844 46.5833 45.9179 45.63 47.3319C44.254 49.3726 41.9657 50.5908 39.5087 50.5908C36.4999 50.5908 33.7835 48.7254 32.6682 45.9768C33.8955 45.2384 35.2049 44.3929 36.493 43.5043C37.5565 42.7706 38.1881 41.6332 38.3181 40.4293C42.934 37.6121 47.0953 34.3765 50.696 30.8031C51.9784 33.5605 53.8965 33.8944 54.7433 33.8944C58.9334 33.8944 62.3129 37.3794 62.1155 41.628C62.0369 43.3209 61.36 44.9525 60.2093 46.2221C59.8617 46.6056 59.8908 47.1986 60.2744 47.5464C60.6571 47.8932 61.2501 47.8657 61.5986 47.4811C64.8128 43.9347 64.8405 38.4485 61.4387 34.8849ZM21.4464 55.3299C16.7383 58.3305 11.2233 58.624 5.92381 57.0871C3.61686 56.4182 2.53089 53.7716 3.69774 51.6968C5.41532 48.643 5.12733 45.4939 6.5703 42.1885C6.67317 41.9527 6.99542 41.9297 7.11666 42.1696C8.6605 45.2232 13.1385 52.5569 21.3575 54.7004C21.6506 54.7768 21.707 55.1638 21.4464 55.3299ZM23.4109 51.869C23.0111 52.269 22.5916 52.6469 22.1598 52.9995C22.0546 52.9542 21.945 52.9159 21.8307 52.8861C14.3505 50.9352 10.2191 44.1501 8.79013 41.3235C8.77463 41.2927 8.75738 41.2634 8.74063 41.2336C9.23137 40.4598 9.82485 39.7254 10.5462 39.0043C11.8954 37.6548 13.7036 36.8728 15.6811 36.7715C18.2355 40.3786 22.4352 44.4659 25.6428 46.7346C25.5414 48.7116 24.7602 50.5198 23.4109 51.869ZM35.4283 41.961C33.517 43.2797 31.5616 44.4992 29.9225 45.3949C28.9047 45.9513 27.6391 45.8689 26.6984 45.1852C23.2941 42.7112 19.7141 39.1352 17.2301 35.7169C16.5463 34.7762 16.4641 33.5107 17.0203 32.4927C17.9164 30.8531 19.1359 28.8978 20.4543 26.9869C21.1851 25.9274 22.6233 25.6344 23.7256 26.3051C28.5515 29.2402 33.1709 33.857 36.1103 38.6898C36.7833 39.796 36.4835 41.2329 35.4283 41.961ZM49.535 29.3149C46.1849 32.665 42.324 35.7141 38.0465 38.3932C37.956 38.1617 37.8455 37.9347 37.7121 37.7154C34.6223 32.6352 29.788 27.7978 24.6998 24.7031C24.4805 24.5697 24.2535 24.4592 24.022 24.3687C26.7015 20.0908 29.7504 16.2298 33.1002 12.8801C38.0049 7.97533 42.1074 5.636 45.6542 5.71363C48.6371 5.78312 50.8685 7.61271 52.8353 9.57979C54.8023 11.5466 56.632 13.7781 56.7015 16.761C56.7838 20.3038 54.4398 24.4102 49.535 29.3149ZM49.4221 52.0498C46.7859 52.0498 44.6414 54.1943 44.6414 56.8305C44.6414 59.4666 46.7859 61.6112 49.4221 61.6112C52.0582 61.6112 54.2028 59.4666 54.2028 56.8305C54.2028 54.1943 52.0582 52.0498 49.4221 52.0498ZM49.4221 59.7362C47.8199 59.7362 46.5163 58.4327 46.5163 56.8305C46.5163 55.2283 47.8199 53.9247 49.4221 53.9247C51.0243 53.9247 52.3278 55.2283 52.3278 56.8305C52.3278 58.4327 51.0243 59.7362 49.4221 59.7362Z" fill="#472B2F"/>
</svg>
