<svg width="81" height="107" viewBox="0 0 81 107" fill="none" xmlns="http://www.w3.org/2000/svg">
<path d="M47.4839 106.61C47.9221 106.735 48.3554 106.57 48.7823 106.468C49.4792 106.296 50.1767 106.134 50.8752 105.975C54.6505 105.057 58.2349 104.491 61.1506 104.048C62.5008 103.747 63.1319 102.37 62.423 101.163C62.0345 100.457 61.6223 99.766 61.2188 99.0705C60.1195 97.0916 59.1032 95.0707 58.045 93.069C57.6017 92.217 57.1571 91.3674 56.7125 90.5178C56.5518 90.217 56.4011 89.9096 56.234 89.6144C55.9542 89.1176 55.331 88.7702 54.7572 88.8953C54.0271 88.9425 53.4766 89.6491 53.4744 90.3556C53.47 90.8405 53.764 91.243 53.9544 91.6696C54.2949 92.3722 54.6368 93.0725 54.9861 93.7709C55.765 95.3071 56.5764 96.8248 57.41 98.3306C57.3497 98.2957 57.2893 98.2609 57.2276 98.2283C50.3139 94.3764 43.4382 90.4533 36.6804 86.3313C28.4561 81.3222 21.3651 76.6136 14.7381 70.6454C13.1976 69.2376 11.7593 67.7118 10.4851 66.0573C8.82476 63.8756 8.22275 63.202 6.73802 60.743C5.16981 58.273 3.8774 53.904 3.64171 51.9954C3.01897 47.802 4.00857 44.9026 5.38414 40.525C6.70767 36.4681 10.1492 32.3146 14.3129 29.9565C16.4189 28.7758 17.104 28.5815 19.5953 27.8437C22.4328 27.1444 23.5403 27.0015 26.569 26.931C27.1365 26.9296 27.7006 26.9448 28.2602 26.973C28.2504 29.2211 28.4077 31.4694 28.7491 33.6937C29.6288 40.0378 31.6896 48.9915 36.5559 53.4184C38.4077 55.1022 40.8293 56.1961 43.3537 56.1946C46.3109 56.1355 49.3814 55.0274 51.3973 52.8014C56.5597 46.8258 54.5985 40.0219 49.8274 34.5665C46.324 30.3801 41.6087 27.3007 36.4553 25.5485C34.7793 24.9813 33.0496 24.5663 31.2961 24.3051C31.513 21.028 32.1013 17.7511 32.9305 15.6874C36.8571 7.25056 45.4779 2.16038 53.5008 3.87121C57.0553 4.48299 61.0444 6.65884 63.0491 8.26018C66.6307 11.2438 69.3974 14.561 71.491 17.6602C75.6746 24.0741 78.2297 32.059 77.9188 39.4356C77.8155 40.8319 77.6994 41.7303 77.0315 43.6916C76.6565 44.754 76.2755 45.8162 75.9005 46.8787C75.8432 47.0691 75.8365 47.2577 75.8767 47.4454C76.0453 49.036 78.355 49.165 78.7547 47.6201C79.3015 46.0079 79.9639 44.4315 80.3831 42.783C81.0595 39.9543 81.0163 36.9989 80.6371 34.132C79.7724 27.483 77.3625 21.0005 73.5633 15.476C70.9543 11.8215 67.9968 8.34143 64.4118 5.61039C60.569 2.78952 55.9433 0.879459 51.1537 0.631786C42.6896 0.162506 34.8871 5.80897 30.9478 13.0557C29.5827 15.4898 29.0591 18.2578 28.6832 20.9898C28.5438 21.9928 28.4413 23.0015 28.3702 24.0097C23.6145 23.7568 18.7905 24.6038 14.4533 26.5544C10.6049 28.3931 7.25279 31.3191 4.88997 34.8753C3.33076 37.2595 2.38183 39.965 1.6215 42.6925C1.08158 44.6252 0.660219 46.6047 0.512638 48.6087C0.385997 52.357 1.3305 56.0843 2.81557 59.5028C4.49207 63.3888 7.19776 66.7204 9.88705 69.9463C12.6229 73.0004 15.8681 75.5477 19.0926 78.0612C26.003 83.4045 33.5028 87.9145 41.0053 92.361C45.2341 94.8832 49.5262 97.296 53.8222 99.7019C54.9822 100.353 56.1408 101.006 57.303 101.659C54.7418 102.105 51.0259 102.877 48.7806 103.425C48.0171 103.664 47.0161 103.639 46.5853 104.433C46.088 105.236 46.5735 106.379 47.4892 106.6L47.4839 106.61ZM46.2774 35.0625C49.7922 38.5694 52.1513 42.9519 51.3783 46.4575C50.7855 49.1575 49.472 51.1 47.3987 52.2188C44.3262 53.8131 41.0851 53.5219 38.7238 51.4012C35.3959 48.3964 34.0388 44.0429 32.7035 38.96C31.6961 34.4514 31.2679 31.6586 31.2043 27.2851C36.9258 28.1981 42.1198 30.8615 46.2778 35.0565L46.2774 35.0625Z" fill="#FAAF71"/>
</svg>
